<?xml version="1.0" encoding="utf-8"?>
<!-- Generator: Adobe Illustrator 19.0.0, SVG Export Plug-In . SVG Version: 6.00 Build 0)  -->
<svg version="1.1" id="Layer_1" xmlns="http://www.w3.org/2000/svg" xmlns:xlink="http://www.w3.org/1999/xlink" x="0px" y="0px"
	 viewBox="0 0 500 500" style="enable-background:new 0 0 500 500;" xml:space="preserve">
<style type="text/css">
	.st0{fill:url(#XMLID_15_);}
	.st1{fill:url(#XMLID_16_);}
	.st2{fill:#FFFFFF;}
</style>
<g id="XMLID_32_">
	
		<linearGradient id="XMLID_15_" gradientUnits="userSpaceOnUse" x1="0.135" y1="-3.999994e-007" x2="0.865" y2="-3.999994e-007" gradientTransform="matrix(0 -500 -500 0 249.9998 500.0002)">
		<stop  offset="0" style="stop-color:#6E0D12"/>
		<stop  offset="1" style="stop-color:#EA1C25"/>
	</linearGradient>
	<path id="XMLID_40_" class="st0" d="M241.4,223.9c-5.6,15.1-13.4,30.1-23.2,49.1c-3.4,6.6-7.3,14.2-11.5,22.3c-1,2.1-2.1,4.1-3.1,6
		c10.2-4.8,26.9-11.6,50.3-17.4c12-3,23.1-5.2,32.9-6.5c-15.1-10.6-26.8-23.6-41.3-46.3C244.1,228.9,242.8,226.6,241.4,223.9
		 M135.9,366.5c1.8,0,6.4-2.3,18.5-13c15-13.3,47.5-72.2,71.5-121.3c3.5-7.1,6.7-14.3,9.6-21.3c-12-31.6-11.9-67.3-11.6-77.5
		c0.3-9.1,6.6-15.4,15.4-15.4c2.5,0,5.1,0.5,7.5,1.6c3.3,1.4,5.8,4.1,7.3,7.9c2.9,7.2,1.8,17.2-0.7,22.9c0,0.1-0.1,0.2-0.3,0.3
		l-0.3,0.2l-0.1-0.3c-0.3-0.7-0.3-1.6-0.2-2.4c0-0.3,0-0.6,0-0.8c-0.1-5.8-1.8-12.2-5.1-18.8l-0.2-0.4c-1.2-2.4-2.9-6-5.8-6.1
		l-0.2,0c-2,0-3.3,0.7-4.4,10.4c-1.7,15,0.6,34,6.9,56.5c7.1-21.2,8.5-33.6,8.5-33.7l0.6,0c-0.5,18.6-2.1,33.6-5.1,47
		c10,29.5,23.1,42.9,31.8,51.7c1.1,1.1,2.1,2.2,3.1,3.2c8.7,9.2,21.6,16.2,22.5,16.3c0.2,0,1.3-0.1,2.8-0.3
		c6.4-0.7,21.2-2.5,33.9-2.8c1.9-0.1,3.8-0.1,5.6-0.1c3.6,0,6.9,0.1,10.1,0.3c4.9,0.3,10.7,0.9,16,2.6c5.8,1.9,9.5,5.6,10.5,10.5
		c0.2,1,0.3,2,0.3,2.9l0,0.3c0,0.8,0.1,1.6-0.3,2.4c-0.2,0.4-0.5,0.4-0.6,0.4c-0.6,0-1.2-0.7-1.8-1.4c-0.9-1.1-2.2-1.9-3.5-2.7
		c-2.7-1.7-5.7-3-8.9-3.9c-4.3-1.2-8.8-1.6-13-1.9c-2.6-0.1-5.4-0.2-8.4-0.2c-2.2,0-4.4,0-6.6,0.1c-3.8,0.1-8.1,0.3-13.3,0.7
		c-0.7,0-1.5,0.1-2.2,0.2c-1.8,0.1-3.6,0.3-5.4,0.3c-2,0-2.3,0.2-2.3,0.2c0.1,0.2,1.8,1.1,3.2,1.7c0.4,0.2,0.9,0.4,1.4,0.7
		c5.1,2.5,21.8,9,37.2,12.8c3.9,1,7.4,1.5,10.5,1.5c7.8,0,10.5-3.1,10.8-3.4c0.6-0.7,1.1-1,1.6-1c0.3,0,0.5,0.1,0.6,0.2l0.1,0.1
		l0,0.2c-0.9,7.8-8.1,12.3-19.9,12.3c-9.8,0-22.3-2.9-37.2-8.7c-11.5-4.5-21-8.9-29.1-13.5c-16.5,3.1-71.7,13.9-96.4,22.6
		c-26.6,49.7-42.7,59.1-49.6,63.1l-0.4,0.2c-3.1,1.8-6.7,2.8-10.4,2.8c-5.4,0-10.4-2.1-14.1-5.8c-1.6-1.6-2.3-3.5-2.3-5.8
		c0-6.2,5.7-14.7,17.4-26.2c12.1-11.8,35.9-22.1,36.1-22.2l0.3,0.5c-0.1,0.1-8,7.2-23.1,21.7c-16.4,15.7-19.4,26.7-19.9,29.8
		c-0.1,0.7-0.1,1.3,0.2,1.5C135.3,366.4,135.5,366.5,135.9,366.5 M432.5,67.5h-365v365h365V67.5"/>
	
		<linearGradient id="XMLID_16_" gradientUnits="userSpaceOnUse" x1="0.135" y1="-8.645250e-003" x2="0.865" y2="-8.645250e-003" gradientTransform="matrix(0 -500 -500 0 249.9998 500.0002)">
		<stop  offset="0" style="stop-color:#370609"/>
		<stop  offset="1" style="stop-color:#750E12"/>
	</linearGradient>
	<path id="XMLID_43_" class="st1" d="M203.6,301.4c1-1.9,2-3.9,3.1-6c4.1-8.1,8-15.7,11.5-22.3c9.8-19,17.7-34.1,23.2-49.1
		c1.4,2.6,2.8,5,4.2,7.2c14.5,22.7,26.2,35.8,41.3,46.3c-9.8,1.3-20.9,3.5-32.9,6.5C230.5,289.9,213.8,296.6,203.6,301.4 M239.3,118
		c-8.8,0-15.1,6.3-15.4,15.4c-0.3,10.2-0.4,45.9,11.6,77.5c-2.9,7-6.1,14.1-9.6,21.3c-23.9,49.1-56.5,108-71.5,121.3
		c-12.1,10.8-16.8,13-18.5,13c-0.4,0-0.6-0.1-0.8-0.3c-0.2-0.3-0.3-0.8-0.2-1.5c0.5-3,3.4-14.1,19.9-29.8
		c15.2-14.4,23-21.6,23.1-21.7l-0.3-0.5c-0.2,0.1-24,10.4-36.1,22.2c-11.7,11.4-17.4,20-17.4,26.2c0,2.3,0.8,4.2,2.3,5.8
		c3.7,3.7,8.7,5.8,14.1,5.8c3.7,0,7.3-1,10.4-2.8l0.4-0.2c6.9-4,23-13.4,49.6-63.1c24.7-8.7,79.8-19.5,96.4-22.6
		c8.1,4.6,17.6,9,29.1,13.5c14.9,5.8,27.4,8.7,37.2,8.7c11.8,0,19-4.5,19.9-12.3l0-0.2l-0.1-0.1c0,0-0.2-0.2-0.6-0.2
		c-0.5,0-1.1,0.4-1.6,1c-0.3,0.4-3,3.4-10.8,3.4c-3.1,0-6.6-0.5-10.5-1.5c-15.4-3.8-32.1-10.3-37.2-12.8c-0.5-0.2-0.9-0.5-1.4-0.7
		c-1.3-0.7-3-1.5-3.2-1.7c0,0,0.3-0.2,2.3-0.2c1.8,0,3.7-0.1,5.4-0.3c0.7-0.1,1.5-0.1,2.2-0.2c5.2-0.3,9.5-0.5,13.3-0.7
		c2.2-0.1,4.4-0.1,6.6-0.1c3,0,5.8,0.1,8.4,0.2c4.2,0.2,8.7,0.6,13,1.9c3.2,0.9,6.2,2.2,8.9,3.9c1.2,0.8,2.5,1.6,3.5,2.7
		c0.6,0.7,1.2,1.4,1.8,1.4c0.2,0,0.4-0.1,0.6-0.4c0.4-0.7,0.3-1.6,0.3-2.4l0-0.3c0-0.9-0.1-1.9-0.3-2.9c-1-4.9-4.8-8.6-10.5-10.5
		c-5.3-1.7-11.1-2.3-16-2.6c-3.2-0.2-6.5-0.3-10.1-0.3c-1.9,0-3.8,0-5.6,0.1c-12.7,0.4-27.6,2.1-33.9,2.8c-1.5,0.2-2.6,0.3-2.8,0.3
		c-1-0.1-13.8-7.1-22.5-16.3c-0.9-1-2-2.1-3.1-3.2c-8.7-8.8-21.9-22.2-31.8-51.7c3-13.4,4.6-28.3,5.1-47l-0.6,0
		c0,0.1-1.5,12.5-8.5,33.7c-6.2-22.4-8.5-41.4-6.9-56.5c1.1-9.7,2.4-10.4,4.4-10.4l0.2,0c2.9,0.1,4.6,3.7,5.8,6.1l0.2,0.4
		c3.2,6.6,4.9,12.9,5.1,18.8c0,0.3,0,0.5,0,0.8c0,0.8-0.1,1.7,0.2,2.4l0.1,0.3l0.3-0.2c0.2-0.1,0.2-0.2,0.3-0.3
		c2.5-5.7,3.6-15.6,0.7-22.9c-1.5-3.8-4-6.5-7.3-7.9C244.4,118.5,241.8,118,239.3,118"/>
	<path id="XMLID_46_" class="st2" d="M140.5,372c-5.2,0-10-2-13.5-5.6c-1.4-1.4-2.1-3.2-2.1-5.3c0-6,5.7-14.4,17.2-25.7
		c9.7-9.5,27.1-18,33.4-20.9c-3.2,2.9-10.3,9.5-21.1,19.8c-16.6,15.8-19.6,27.1-20.1,30.2c-0.2,1,0,1.7,0.3,2.1
		c0.3,0.4,0.7,0.5,1.3,0.5c2.8,0,9.2-4.4,19-13.2c15-13.4,47.7-72.4,71.6-121.6c3.5-7.2,6.7-14.4,9.7-21.4l0-0.1l0-0.1
		c-12-31.6-11.9-67.2-11.6-77.4c0.3-8.7,6.3-14.7,14.7-14.7c2.4,0,4.9,0.5,7.3,1.5c3.1,1.3,5.4,3.9,6.9,7.5
		c2.6,6.6,1.8,15.5-0.3,21.2c0-0.2,0-0.5,0-0.7c0-0.3,0-0.6,0-0.9c-0.1-6-1.9-12.4-5.1-19.1l-0.2-0.4c-1.2-2.6-3.1-6.4-6.4-6.5
		l-0.2,0c-2.9,0-4.1,1.7-5.1,11.1c-1.7,15.3,0.7,34.7,7.2,57.7l0.4,1.4l0.5-1.3c4.3-12.7,6.6-22.3,7.8-28.3
		c-0.7,15.7-2.2,28.6-4.9,40.4l0,0.1l0,0.1c10,29.8,23.3,43.3,32,52.2c1.1,1.1,2.1,2.2,3.1,3.2c8.6,9.1,22,16.6,23.1,16.6
		c0.2,0,1-0.1,2.9-0.3c6.3-0.7,21.2-2.5,33.9-2.8c1.9-0.1,3.7-0.1,5.6-0.1c3.6,0,6.8,0.1,10,0.3c4.9,0.3,10.6,0.9,15.8,2.6
		c5.5,1.8,9.1,5.3,10.1,10c0.2,1,0.2,1.9,0.3,2.8l0,0.4c0,0.7,0.1,1.5-0.2,2.1l0,0c0,0-0.3-0.1-1.1-1.1c-1-1.2-2.4-2.1-3.6-2.9
		c-2.8-1.7-5.8-3-9.1-4c-4.4-1.3-8.9-1.7-13.2-1.9c-2.7-0.2-5.4-0.2-8.5-0.2c-2.2,0-4.4,0-6.7,0.1c-3.9,0.1-8.1,0.3-13.3,0.7
		c-0.7,0-1.5,0.1-2.2,0.2c-1.8,0.1-3.6,0.3-5.4,0.3c-2.1,0-2.9,0.2-3,0.8c-0.2,0.7,0.8,1.2,3.5,2.6c0,0,1,0.5,1.4,0.7
		c5.1,2.6,21.9,9,37.3,12.9c3.9,1,7.5,1.5,10.6,1.5c8,0,10.8-3.1,11.3-3.7c0.5-0.6,0.9-0.8,1-0.8c-1,7.2-8,11.3-19.2,11.3
		c-9.7,0-22.1-2.9-36.9-8.7c-11.5-4.5-21-8.9-29.1-13.5l-0.1-0.1l-0.1,0c-11.6,2.2-70.8,13.4-96.8,22.6l-0.1,0l-0.1,0.1
		c-26.7,49.7-42.6,59-49.5,63l-0.4,0.2C147.5,371.1,144.1,372,140.5,372z M240.9,223.1c-5.6,15.2-13.4,30.4-23.4,49.7
		c-3.4,6.6-7.3,14.1-11.5,22.3c-1.2,2.3-2.3,4.6-3.5,6.8L202,303l1.2-0.6c10-4.8,27-11.7,51-17.7c12.3-3.1,23.6-5.3,33.6-6.6
		l1.1-0.1l-0.9-0.6c-15.4-10.6-27.1-23.6-41.7-46.6c-1.5-2.4-3-4.9-4.5-7.8l-0.5-0.9L240.9,223.1z"/>
	<path id="XMLID_49_" class="st2" d="M384.5,312c-2.1,0-3.8-1.7-3.8-3.8s1.7-3.8,3.8-3.8c2.1,0,3.8,1.7,3.8,3.8S386.6,312,384.5,312
		z M384.5,305.1c-1.7,0-3.1,1.4-3.1,3.1s1.4,3.1,3.1,3.1c1.7,0,3.1-1.4,3.1-3.1S386.2,305.1,384.5,305.1z"/>
	<path id="XMLID_53_" class="st2" d="M382.9,305.9c0.3-0.1,0.8-0.1,1.2-0.1c0.7,0,1.1,0.1,1.4,0.4c0.2,0.2,0.4,0.5,0.4,0.9
		c0,0.6-0.4,1.1-0.9,1.2v0c0.4,0.1,0.6,0.5,0.7,1c0.2,0.7,0.3,1.1,0.4,1.3h-0.6c-0.1-0.1-0.2-0.6-0.3-1.2c-0.1-0.7-0.4-0.9-1-0.9
		h-0.6v2.1h-0.6V305.9z M383.5,308.1h0.6c0.7,0,1.1-0.4,1.1-0.9c0-0.6-0.5-0.9-1.1-0.9c-0.3,0-0.5,0-0.6,0.1V308.1z"/>
</g>
</svg>
